<svg width="294" height="95" viewBox="0 0 294 95" fill="none" xmlns="http://www.w3.org/2000/svg">
<path d="M35.9863 70.547C37.6367 69.4972 39.292 68.4523 40.9424 67.4025C41.6895 66.9288 42.4463 66.4601 43.1738 65.9523C44.9023 64.7462 46.5234 63.3741 47.9639 61.8312C50.8154 58.7696 52.9834 55.1417 54.3555 51.1915C55.4736 47.964 55.9521 44.5607 55.9521 41.1525V34.6534C55.9521 33.7794 55.3418 33.0177 54.5166 32.7687C53.9209 32.588 53.3301 32.4025 52.7588 32.1632C52.915 32.2267 53.0713 32.295 53.2275 32.3585C52.207 31.9239 51.25 31.3673 50.3711 30.6935L50.7666 31.0011C49.8975 30.3273 49.1162 29.5509 48.4424 28.6817L48.75 29.0773C48.0762 28.1984 47.5146 27.2364 47.0801 26.2159C47.1436 26.3722 47.2119 26.5284 47.2754 26.6847C47.1289 26.3331 46.9922 25.9718 46.875 25.6105C46.6113 24.7853 45.874 24.1749 44.9902 24.1749H27.4658C26.6602 24.1749 25.8496 24.1505 25.0439 24.1749H25.0098C24.1211 24.1749 23.3887 24.7853 23.125 25.6105C23.0078 25.9767 22.876 26.3331 22.7246 26.6847C22.7881 26.5284 22.8564 26.3722 22.9199 26.2159C22.4854 27.2364 21.9238 28.1935 21.25 29.0773L21.5576 28.6817C20.8838 29.5509 20.1025 30.3273 19.2334 31.0011L19.6289 30.6935C18.75 31.3673 17.7881 31.9239 16.7725 32.3585C16.9287 32.295 17.085 32.2267 17.2412 32.1632C16.665 32.4025 16.0791 32.588 15.4834 32.7687C14.6582 33.0177 14.0479 33.7794 14.0479 34.6534V40.5421C14.0479 41.5773 14.0479 42.6124 14.1211 43.6476C14.2773 45.7521 14.6338 47.8517 15.2246 49.878C16.3965 53.9015 18.4277 57.6075 21.123 60.8058C23.2178 63.2911 25.7422 65.3028 28.4766 67.0362L33.8818 70.464C33.9258 70.4933 33.9746 70.5226 34.0186 70.5519C34.8828 71.0987 36.2109 70.7618 36.6895 69.8487C37.1973 68.8819 36.9092 67.7638 35.9863 67.1778C35.1074 66.6212 34.2285 66.0646 33.3545 65.5079C32.2314 64.795 31.1133 64.087 29.9902 63.3741C29.2041 62.8761 28.4375 62.3439 27.6953 61.7775L28.0908 62.0851C26.2451 60.6544 24.585 58.9942 23.1543 57.1485L23.4619 57.5441C22.0068 55.6544 20.7959 53.5841 19.8633 51.3868C19.9268 51.5431 19.9951 51.6993 20.0586 51.8556C19.1064 49.5948 18.457 47.2218 18.1299 44.7901C18.1543 44.961 18.1787 45.1368 18.1982 45.3077C17.9883 43.7257 17.9541 42.1437 17.9541 40.5567V34.673C17.4756 35.3028 16.9971 35.9278 16.5186 36.5577C18.2031 36.0499 19.834 35.3761 21.2646 34.3458C22.959 33.1251 24.4043 31.6212 25.4785 29.8243C26.0693 28.838 26.543 27.7638 26.8945 26.67C26.2646 27.1485 25.6396 27.6271 25.0098 28.1056H42.5342C43.3398 28.1056 44.1504 28.1251 44.9561 28.1056H44.9902C44.3603 27.6271 43.7353 27.1485 43.1055 26.67C44.3311 30.4933 47.1143 33.8185 50.7666 35.5372C51.6455 35.9523 52.5488 36.2745 53.4814 36.5577C53.0029 35.9278 52.5244 35.3028 52.0459 34.673V41.5968C52.0459 42.837 51.9629 44.0773 51.8018 45.3077C51.8262 45.1368 51.8506 44.961 51.8701 44.7901C51.5381 47.2169 50.8887 49.5948 49.9414 51.8556C50.0049 51.6993 50.0732 51.5431 50.1367 51.3868C49.2041 53.5841 47.9932 55.6544 46.5381 57.5441L46.8457 57.1485C45.415 58.9942 43.7549 60.6544 41.9092 62.0851L42.3047 61.7775C41.2109 62.6222 40.0488 63.3497 38.8867 64.0919C37.5977 64.9122 36.3086 65.7276 35.0195 66.548C34.6875 66.7579 34.3506 66.9728 34.0186 67.1827C33.5938 67.4513 33.2568 67.8566 33.1201 68.3497C32.9932 68.8185 33.0518 69.4386 33.3154 69.8536C33.8721 70.713 35.0635 71.1329 35.9863 70.547Z" fill="#E6EBF3"/>
<path d="M25.0488 47.3975L30.0635 52.4122L30.7764 53.1251C31.5234 53.8721 32.793 53.8721 33.54 53.1251L37.4121 49.253L43.54 43.1251L44.9512 41.7139C45.6738 40.9913 45.7275 39.6631 44.9512 38.9503C44.1699 38.2325 42.959 38.1788 42.1875 38.9503L38.3154 42.8223L32.1875 48.9503L30.7764 50.3614H33.54L28.5254 45.3467L27.8125 44.6338C27.0898 43.9112 25.7617 43.8575 25.0488 44.6338C24.3311 45.4151 24.2773 46.6212 25.0488 47.3975Z" fill="#E6EBF3"/>
<path d="M92.4093 31.736H97.0653V65H92.4093V31.736ZM109.188 40.04H118.644V43.784H109.188V55.304C109.188 56.552 109.284 57.592 109.476 58.424C109.668 59.224 109.956 59.864 110.34 60.344C110.724 60.792 111.204 61.112 111.78 61.304C112.356 61.496 113.028 61.592 113.796 61.592C115.14 61.592 116.212 61.448 117.012 61.16C117.844 60.84 118.42 60.616 118.74 60.488L119.604 64.184C119.156 64.408 118.372 64.68 117.252 65C116.132 65.352 114.852 65.528 113.412 65.528C111.716 65.528 110.308 65.32 109.188 64.904C108.1 64.456 107.22 63.8 106.548 62.936C105.876 62.072 105.396 61.016 105.108 59.768C104.852 58.488 104.724 57.016 104.724 55.352V33.08L109.188 32.312V40.04ZM133.54 39.512C133.924 39.512 134.356 39.544 134.836 39.608C135.348 39.64 135.844 39.704 136.324 39.8C136.804 39.864 137.236 39.944 137.62 40.04C138.036 40.104 138.34 40.168 138.532 40.232L137.764 44.12C137.412 43.992 136.82 43.848 135.988 43.688C135.188 43.496 134.148 43.4 132.868 43.4C132.036 43.4 131.204 43.496 130.372 43.688C129.572 43.848 129.044 43.96 128.788 44.024V65H124.324V41.096C125.38 40.712 126.692 40.36 128.26 40.04C129.828 39.688 131.588 39.512 133.54 39.512ZM162.712 64.28C161.688 64.536 160.328 64.808 158.632 65.096C156.968 65.384 155.032 65.528 152.824 65.528C150.904 65.528 149.288 65.256 147.976 64.712C146.664 64.136 145.608 63.336 144.808 62.312C144.008 61.288 143.432 60.088 143.08 58.712C142.728 57.304 142.552 55.752 142.552 54.056V40.04H147.016V53.096C147.016 56.136 147.496 58.312 148.456 59.624C149.416 60.936 151.032 61.592 153.304 61.592C153.784 61.592 154.28 61.576 154.792 61.544C155.304 61.512 155.784 61.48 156.232 61.448C156.68 61.384 157.08 61.336 157.432 61.304C157.816 61.24 158.088 61.176 158.248 61.112V40.04H162.712V64.28ZM176.211 61.784C178.035 61.784 179.379 61.544 180.243 61.064C181.139 60.584 181.587 59.816 181.587 58.76C181.587 57.672 181.155 56.808 180.291 56.168C179.427 55.528 178.003 54.808 176.019 54.008C175.059 53.624 174.131 53.24 173.235 52.856C172.371 52.44 171.619 51.96 170.979 51.416C170.339 50.872 169.827 50.216 169.443 49.448C169.059 48.68 168.867 47.736 168.867 46.616C168.867 44.408 169.683 42.664 171.315 41.384C172.947 40.072 175.171 39.416 177.987 39.416C178.691 39.416 179.395 39.464 180.099 39.56C180.803 39.624 181.459 39.72 182.067 39.848C182.675 39.944 183.203 40.056 183.651 40.184C184.131 40.312 184.499 40.424 184.755 40.52L183.939 44.36C183.459 44.104 182.707 43.848 181.683 43.592C180.659 43.304 179.427 43.16 177.987 43.16C176.739 43.16 175.651 43.416 174.723 43.928C173.795 44.408 173.331 45.176 173.331 46.232C173.331 46.776 173.427 47.256 173.618 47.672C173.843 48.088 174.163 48.472 174.579 48.824C175.027 49.144 175.571 49.448 176.211 49.736C176.851 50.024 177.619 50.328 178.515 50.648C179.699 51.096 180.755 51.544 181.683 51.992C182.611 52.408 183.395 52.904 184.035 53.48C184.707 54.056 185.219 54.76 185.571 55.592C185.923 56.392 186.099 57.384 186.099 58.568C186.099 60.872 185.235 62.616 183.507 63.8C181.811 64.984 179.379 65.576 176.211 65.576C174.003 65.576 172.275 65.384 171.027 65C169.779 64.648 168.931 64.376 168.483 64.184L169.299 60.344C169.811 60.536 170.627 60.824 171.747 61.208C172.867 61.592 174.355 61.784 176.211 61.784ZM196 40.04H205.456V43.784H196V55.304C196 56.552 196.096 57.592 196.288 58.424C196.48 59.224 196.768 59.864 197.152 60.344C197.536 60.792 198.016 61.112 198.592 61.304C199.168 61.496 199.84 61.592 200.608 61.592C201.952 61.592 203.024 61.448 203.824 61.16C204.656 60.84 205.232 60.616 205.552 60.488L206.416 64.184C205.968 64.408 205.184 64.68 204.064 65C202.944 65.352 201.664 65.528 200.224 65.528C198.528 65.528 197.12 65.32 196 64.904C194.912 64.456 194.032 63.8 193.36 62.936C192.688 62.072 192.208 61.016 191.92 59.768C191.664 58.488 191.536 57.016 191.536 55.352V33.08L196 32.312V40.04ZM219.585 61.784C220.641 61.784 221.569 61.768 222.369 61.736C223.201 61.672 223.889 61.576 224.433 61.448V54.008C224.113 53.848 223.585 53.72 222.849 53.624C222.145 53.496 221.281 53.432 220.257 53.432C219.585 53.432 218.865 53.48 218.097 53.576C217.361 53.672 216.673 53.88 216.033 54.2C215.425 54.488 214.913 54.904 214.497 55.448C214.081 55.96 213.873 56.648 213.873 57.512C213.873 59.112 214.385 60.232 215.409 60.872C216.433 61.48 217.825 61.784 219.585 61.784ZM219.201 39.416C220.993 39.416 222.497 39.656 223.713 40.136C224.961 40.584 225.953 41.24 226.689 42.104C227.457 42.936 228.001 43.944 228.321 45.128C228.641 46.28 228.801 47.56 228.801 48.968V64.568C228.417 64.632 227.873 64.728 227.169 64.856C226.497 64.952 225.729 65.048 224.865 65.144C224.001 65.24 223.057 65.32 222.033 65.384C221.041 65.48 220.049 65.528 219.057 65.528C217.649 65.528 216.353 65.384 215.169 65.096C213.985 64.808 212.961 64.36 212.097 63.752C211.233 63.112 210.561 62.28 210.081 61.256C209.601 60.232 209.361 59 209.361 57.56C209.361 56.184 209.633 55 210.177 54.008C210.753 53.016 211.521 52.216 212.481 51.608C213.441 51 214.561 50.552 215.841 50.264C217.121 49.976 218.465 49.832 219.873 49.832C220.321 49.832 220.785 49.864 221.265 49.928C221.745 49.96 222.193 50.024 222.609 50.12C223.057 50.184 223.441 50.248 223.761 50.312C224.081 50.376 224.305 50.424 224.433 50.456V49.208C224.433 48.472 224.353 47.752 224.193 47.048C224.033 46.312 223.745 45.672 223.329 45.128C222.913 44.552 222.337 44.104 221.601 43.784C220.897 43.432 219.969 43.256 218.817 43.256C217.345 43.256 216.049 43.368 214.929 43.592C213.841 43.784 213.025 43.992 212.481 44.216L211.953 40.52C212.529 40.264 213.489 40.024 214.833 39.8C216.177 39.544 217.633 39.416 219.201 39.416ZM236.215 40.76C237.239 40.504 238.583 40.232 240.247 39.944C241.943 39.656 243.895 39.512 246.103 39.512C247.703 39.512 249.047 39.736 250.135 40.184C251.223 40.6 252.135 41.224 252.871 42.056C253.095 41.896 253.447 41.672 253.927 41.384C254.407 41.096 254.999 40.824 255.703 40.568C256.407 40.28 257.191 40.04 258.055 39.848C258.919 39.624 259.847 39.512 260.839 39.512C262.759 39.512 264.327 39.8 265.543 40.376C266.759 40.92 267.703 41.704 268.375 42.728C269.079 43.752 269.543 44.968 269.767 46.376C270.023 47.784 270.151 49.32 270.151 50.984V65H265.687V51.944C265.687 50.472 265.607 49.208 265.447 48.152C265.319 47.096 265.047 46.216 264.631 45.512C264.247 44.808 263.703 44.296 262.999 43.976C262.327 43.624 261.447 43.448 260.359 43.448C258.855 43.448 257.607 43.656 256.615 44.072C255.655 44.456 254.999 44.808 254.647 45.128C254.903 45.96 255.095 46.872 255.223 47.864C255.351 48.856 255.415 49.896 255.415 50.984V65H250.951V51.944C250.951 50.472 250.871 49.208 250.711 48.152C250.551 47.096 250.263 46.216 249.847 45.512C249.463 44.808 248.919 44.296 248.215 43.976C247.543 43.624 246.679 43.448 245.623 43.448C245.175 43.448 244.695 43.464 244.183 43.496C243.671 43.528 243.175 43.576 242.695 43.64C242.247 43.672 241.831 43.72 241.447 43.784C241.063 43.848 240.807 43.896 240.679 43.928V65H236.215V40.76Z" fill="white"/>
</svg>
